# xmcd
#
# Track frame offsets:
#	150
#	12928
#	27814
#	37638
#	48937
#	60951
#	72210
#	85135
#	96979
#	105767
#	120906
#	128882
#	141088
#	151699
#	164800
#	175416
#	188868
#	200877
#	212784
#	221670
#	232321
#	243467
#	252044
#	263392
#	274067
#	285312
#	294718
#	307453
#	320023
#	331632
#
# Disc length: 4564 seconds
#
# Revision: 1
# Processed by: cddbd v1.5.2PL0 Copyright (c) Steve Scherf et al.
# Submitted via: audiograbber 1.83.01
#
DISCID=ae11d21e
DTITLE=Various Artist - Soul City New York - CD2
DYEAR=2013
DGENRE=Soul
TTITLE0=King Curtis and The Noble Knights - 1962 - Soul Twist
TTITLE1=Isley Brothers - 1962 - Right Now
TTITLE2=Isley Brothers - 1962 - The Snake
TTITLE3=Isley Brothers - 1962 - Twist And Shout
TTITLE4=Isley Brothers - 1962 - Time After Time
TTITLE5=Jokers - 1961 - So Tight
TTITLE6=Jokers - 1961 - Whisper
TTITLE7=Chuck Jackson - 1962 - Angel Of Angels
TTITLE8=Chuck Jackson - 1962 - Everybody Needs Love
TTITLE9=Chuck Jackson - 1962 - Any Day Now
TTITLE10=Chuck Jackson - 1962 - Make The Night Just A Little Longer
TTITLE11=Chuck Jackson - 1962 - I Keep Forgettin'
TTITLE12=Chuck Jackson - 1961 - In Between Tears
TTITLE13=Shep and The Limelites - 1961 - Daddy's Home
TTITLE14=Shep and The Limelites - 1961 - Three Steps From The Altar
TTITLE15=Shep and The Limelites - 1961 - Oh What A Feeling
TTITLE16=Shep and The Limelites - 1962 - Our Anniversary
TTITLE17=Shep and The Limelites - 1962 - Who Told The Sandman
TTITLE18=James Ray - 1961 - If You Gotta Make A Fool Of Somebody
TTITLE19=James Ray - 1961 - You Remember The Face
TTITLE20=Sam and Dave - 1962 - I Need Love
TTITLE21=Sam and Dave - 1962 - Keep A Walkin'
TTITLE22=Sam and Dave - 1962 - No More Pain
TTITLE23=Sam and Dave - 1962 - My Love Belongs To You
TTITLE24=Sam and Dave - 1962 - She's Alright
TTITLE25=Sam and Dave - 1962 - It Feels So Nice
TTITLE26=Jackie Wilson and Linda Hopkins - 1962 - I Found Love
TTITLE27=Jackie Wilson - 1962 - Sing (And Tell The Blues So  Long)
TTITLE28=Screamin' Jay Hawkins - 1962 - I Hear Voices
TTITLE29=Screamin' Jay Hawkins - 1962 - Just Don't Care
EXTD=
EXTT0=
EXTT1=
EXTT2=
EXTT3=
EXTT4=
EXTT5=
EXTT6=
EXTT7=
EXTT8=
EXTT9=
EXTT10=
EXTT11=
EXTT12=
EXTT13=
EXTT14=
EXTT15=
EXTT16=
EXTT17=
EXTT18=
EXTT19=
EXTT20=
EXTT21=
EXTT22=
EXTT23=
EXTT24=
EXTT25=
EXTT26=
EXTT27=
EXTT28=
EXTT29=
PLAYORDER=
